<mxfile host="app.diagrams.net" agent="Mozilla/5.0 (Windows NT 10.0; Win64; x64) AppleWebKit/537.36 (KHTML, like Gecko) Chrome/133.0.0.0 Safari/537.36" version="26.0.16">
  <diagram name="Page-1" id="mRHkm12IqFpeQIY2AUvV">
    <mxGraphModel dx="794" dy="446" grid="1" gridSize="10" guides="1" tooltips="1" connect="1" arrows="1" fold="1" page="1" pageScale="1" pageWidth="850" pageHeight="1100" math="0" shadow="0">
      <root>
        <mxCell id="0" />
        <mxCell id="1" parent="0" />
        <mxCell id="RgbC2NjBzFe7X8s7O7zl-5" style="edgeStyle=orthogonalEdgeStyle;rounded=0;orthogonalLoop=1;jettySize=auto;html=1;exitX=0.5;exitY=1;exitDx=0;exitDy=0;" parent="1" source="RgbC2NjBzFe7X8s7O7zl-2" target="RgbC2NjBzFe7X8s7O7zl-3" edge="1">
          <mxGeometry relative="1" as="geometry" />
        </mxCell>
        <mxCell id="RgbC2NjBzFe7X8s7O7zl-2" value="&lt;b&gt;Router&lt;/b&gt;" style="image;html=1;image=img/lib/clip_art/networking/Router_128x128.png" parent="1" vertex="1">
          <mxGeometry x="360" y="60" width="70" height="50" as="geometry" />
        </mxCell>
        <mxCell id="RgbC2NjBzFe7X8s7O7zl-13" style="edgeStyle=orthogonalEdgeStyle;rounded=0;orthogonalLoop=1;jettySize=auto;html=1;exitX=0.5;exitY=1;exitDx=0;exitDy=0;" parent="1" source="RgbC2NjBzFe7X8s7O7zl-3" edge="1" target="RgbC2NjBzFe7X8s7O7zl-11">
          <mxGeometry relative="1" as="geometry">
            <mxPoint x="395" y="340" as="targetPoint" />
          </mxGeometry>
        </mxCell>
        <mxCell id="RgbC2NjBzFe7X8s7O7zl-14" style="edgeStyle=orthogonalEdgeStyle;rounded=0;orthogonalLoop=1;jettySize=auto;html=1;exitX=1;exitY=0.5;exitDx=0;exitDy=0;" parent="1" source="RgbC2NjBzFe7X8s7O7zl-3" edge="1" target="RgbC2NjBzFe7X8s7O7zl-9">
          <mxGeometry relative="1" as="geometry">
            <mxPoint x="577" y="340" as="targetPoint" />
          </mxGeometry>
        </mxCell>
        <mxCell id="RgbC2NjBzFe7X8s7O7zl-15" style="edgeStyle=orthogonalEdgeStyle;rounded=0;orthogonalLoop=1;jettySize=auto;html=1;exitX=0;exitY=0.5;exitDx=0;exitDy=0;" parent="1" source="RgbC2NjBzFe7X8s7O7zl-3" edge="1" target="RgbC2NjBzFe7X8s7O7zl-7">
          <mxGeometry relative="1" as="geometry">
            <mxPoint x="220" y="340" as="targetPoint" />
          </mxGeometry>
        </mxCell>
        <mxCell id="RgbC2NjBzFe7X8s7O7zl-3" value="&lt;b&gt;Switch&lt;/b&gt;" style="image;html=1;image=img/lib/clip_art/networking/Switch_128x128.png" parent="1" vertex="1">
          <mxGeometry x="367.5" y="170" width="55" height="70" as="geometry" />
        </mxCell>
        <mxCell id="RgbC2NjBzFe7X8s7O7zl-7" value="&lt;b&gt;Employee PC 1&lt;/b&gt;" style="verticalLabelPosition=bottom;sketch=0;aspect=fixed;html=1;verticalAlign=top;strokeColor=none;align=center;outlineConnect=0;shape=mxgraph.citrix.desktop;" parent="1" vertex="1">
          <mxGeometry x="200" y="350" width="54.49" height="60" as="geometry" />
        </mxCell>
        <mxCell id="RgbC2NjBzFe7X8s7O7zl-9" value="Employee PC 3" style="verticalLabelPosition=bottom;sketch=0;aspect=fixed;html=1;verticalAlign=top;strokeColor=none;align=center;outlineConnect=0;shape=mxgraph.citrix.desktop;fontStyle=1" parent="1" vertex="1">
          <mxGeometry x="550" y="350" width="54.49" height="60" as="geometry" />
        </mxCell>
        <mxCell id="RgbC2NjBzFe7X8s7O7zl-11" value="Employee PC 2" style="verticalLabelPosition=bottom;sketch=0;aspect=fixed;html=1;verticalAlign=top;strokeColor=none;align=center;outlineConnect=0;shape=mxgraph.citrix.desktop;fontStyle=1" parent="1" vertex="1">
          <mxGeometry x="367.5" y="350" width="54.49" height="60" as="geometry" />
        </mxCell>
      </root>
    </mxGraphModel>
  </diagram>
</mxfile>
